# xmcd CD database file
#
# Track frame offsets:
#	150
#	15117
#	25205
#	38342
#	50187
#	63155
#	77547
#	90347
#	105047
#	119632
#
# Disc length: 1794 seconds
#
# Revision: 2
# Processed by: cddbd v1.5.2PL0 Copyright (c) Steve Scherf et al.
# Submitted via: CDex 1.51
#
DISCID=6207000a
DTITLE=George Strait - Something Special
DYEAR=1985
DGENRE=Country
TTITLE0=You're Something Special To Me
TTITLE1=Last Time The First Time
TTITLE2=Haven't You Heard
TTITLE3=In Too Deep
TTITLE4=Blue Is Not A Word
TTITLE5=You Sure Got This Ol' Redneck Feelin' Blue
TTITLE6=The Chair
TTITLE7=Dance Time In Texas
TTITLE8=Lefty's Gone
TTITLE9=I've Seen That Look On Me (A Thousand Times)
EXTD=YEAR: 1985
EXTT0=
EXTT1=
EXTT2=
EXTT3=
EXTT4=
EXTT5=
EXTT6=
EXTT7=
EXTT8=
EXTT9=
PLAYORDER=
